<svg width="128" height="128" viewBox="0 0 128 128" xmlns="http://www.w3.org/2000/svg"><defs><linearGradient x1="80.253%" y1="111.133%" x2="19.747%" y2="-11.133%" id="a"><stop stop-color="#0063FF" offset="0%"/><stop stop-color="#00C8DE" offset="100%"/></linearGradient></defs><path d="M64.595 2C97.599 2 124.535 27.474 127 59.765h-2.845C121.689 28.988 95.987 4.84 64.595 4.84 31.59 4.84 4.845 31.546 4.845 64.5s26.745 59.66 59.75 59.66c31.392 0 57.094-24.148 59.56-54.926H127C124.534 101.526 97.599 127 64.595 127 29.978 127 2 99.064 2 64.5S29.978 2 64.595 2zM64 33l28.121 15.75v11.415l-17.454 9.808v-3.377l14.545-8.147v-7.956l-7.274-4.073-16.97 9.156v19.39L49.08 84.272 64 92.628l24.312-13.64a4.04 4.04 0 01-.07-.707c0-2.174 1.737-3.937 3.88-3.937 2.141 0 3.878 1.763 3.878 3.937 0 2.175-1.737 3.938-3.879 3.938a3.81 3.81 0 01-2.227-.722L64 96 35.879 80.25V68.796l17.454-9.747v3.372l-14.545 8.147v7.939l7.28 4.077 15.992-9.347V53.788l16.866-9.056L64 36.372l-24.314 13.62c.043.237.072.478.072.727 0 2.174-1.737 3.937-3.88 3.937-2.141 0-3.878-1.763-3.878-3.937 0-2.175 1.737-3.938 3.879-3.938.83 0 1.596.27 2.227.722L64 33z" fill="url(#a)" fill-rule="nonzero"/></svg>